Coordinates
version=1
nRows=9
nColumns=24
inDegrees=yes

Units are S.I. units (second, meters, Newtons, ...)
If the header above contains a line with 'inDegrees', this indicates whether rotational values are in degrees (yes) or radians (no).

endheader
time	pelvis_tilt	pelvis_list	pelvis_rotation	pelvis_tx	pelvis_ty	pelvis_tz	hip_flexion_r	hip_adduction_r	hip_rotation_r	knee_angle_r	ankle_angle_r	subtalar_angle_r	mtp_angle_r	hip_flexion_l	hip_adduction_l	hip_rotation_l	knee_angle_l	ankle_angle_l	subtalar_angle_l	mtp_angle_l	lumbar_extension	lumbar_bending	lumbar_rotation
      0.40000000	      4.83683654	     -1.95615497	     -0.98569136	      0.60148348	      1.04508906	     -0.02149176	     20.14000207	     -2.72829976	     -6.49002016	    -55.18617076	      2.73988805	     -0.00000303	      0.00000000	     -5.83177786	      1.19582961	     -1.06953518	     -7.30356310	      5.38054124	     -0.00000024	      0.00000000	    -16.90326790	     -0.85018227	     -4.76713293
      0.41700000	      4.80628137	     -1.84537701	     -0.84582269	      0.59876370	      1.04418374	     -0.02283683	     20.63509908	     -2.91739275	     -6.96646690	    -50.31479345	      2.74655257	     -0.00000349	      0.00000000	     -7.28244289	      1.39815167	     -0.90309469	     -6.33596355	      5.62983940	     -0.00000024	      0.00000000	    -17.19618416	     -0.79461001	     -5.06722388
      0.43300000	      4.71668049	     -1.50614360	     -0.90242456	      0.59649877	      1.04260632	     -0.02297999	     20.96657393	     -3.27946954	     -7.53047239	    -44.99025944	      2.64346437	     -0.00000427	      0.00000000	     -8.72446707	      1.81230356	     -0.93244580	     -5.31795563	      5.88974313	     -0.00000015	      0.00000000	    -17.21683106	     -1.12156303	     -5.07731736
      0.45000000	      4.84020181	     -1.05151614	     -0.78987326	      0.59435823	      1.04088858	     -0.02320705	     20.78949791	     -3.75894726	     -8.36019407	    -39.20032942	      2.37031499	     -0.00000501	      0.00000000	    -10.30674230	      2.31569970	     -0.75800174	     -4.47881741	      6.24177017	     -0.00000009	      0.00000000	    -17.45093814	     -1.49165308	     -5.21422758
      0.46700000	      4.70568912	     -0.33677140	     -0.73627980	      0.59185767	      1.03829188	     -0.02326726	     20.78028531	     -4.36483872	     -9.07763863	    -33.16156196	      1.95117718	     -0.00000503	      0.00000000	    -11.49600895	      3.08226634	     -0.56557049	     -3.83679487	      6.64117700	     -0.00000005	      0.00000000	    -17.40159894	     -2.20576789	     -5.36784889
      0.48300000	      4.63530342	     -0.03555989	     -0.29952170	      0.59054608	      1.03586373	     -0.02297145	     20.17840359	     -4.44972461	    -10.11041387	    -26.49517760	      1.39627162	     -0.00000467	      0.00000000	    -12.96995576	      3.26159155	     -0.04259816	     -2.91760307	      6.97896149	     -0.00000008	      0.00000000	    -17.38481399	     -2.39705178	     -5.69415666
      0.50000000	      4.50709314	      0.41641698	     -0.30246589	      0.58955816	      1.03283020	     -0.02158564	     19.64182481	     -4.36541246	    -10.19327713	    -19.89942543	      0.91708155	     -0.00000389	      0.00000000	    -14.39977702	      3.64905934	      0.04964379	     -2.05799330	      7.31289342	      0.00000011	      0.00000000	    -17.22153141	     -2.91574744	     -5.48043568
      0.51700000	      4.36325328	      0.98292407	     -0.20985980	      0.58826274	      1.02928054	     -0.02080968	     19.15608710	     -4.42039057	     -9.64893961	    -13.68512943	      0.63434843	     -0.00000285	      0.00000000	    -15.68331257	      4.15247190	      0.32399603	     -1.44295087	      7.73667540	      0.00000017	      0.00000000	    -17.10766079	     -3.39012619	     -5.64928332
      0.53300000	      4.18868620	      1.54966045	      0.12098681	      0.58722217	      1.02536143	     -0.02031358	     18.67936512	     -4.62049988	     -8.78137388	     -8.10841795	      0.64272694	     -0.00000189	      0.00000000	    -16.80825526	      4.57030483	      0.90402220	     -1.12862953	      8.31730964	      0.00000012	      0.00000000	    -16.94193664	     -3.78982148	     -5.78808241
